<?xml version="1.0" standalone="no"?>
<!DOCTYPE svg PUBLIC "-//W3C//DTD SVG 20010904//EN"
 "http://www.w3.org/TR/2001/REC-SVG-20010904/DTD/svg10.dtd">
<svg version="1.0" xmlns="http://www.w3.org/2000/svg"
 width="411.000000pt" height="411.000000pt" viewBox="0 0 411.000000 411.000000"
 preserveAspectRatio="xMidYMid meet">
<metadata>
Created by potrace 1.11, written by Peter Selinger 2001-2013
</metadata>
<g transform="translate(0.000000,411.000000) scale(0.100000,-0.100000)"
fill="#000000" stroke="none">
<path d="M1898 3845 c-2 -1 -28 -6 -58 -9 -30 -4 -77 -11 -105 -16 -27 -6 -59
-12 -70 -14 -82 -15 -293 -101 -390 -160 -344 -209 -580 -537 -667 -928 -33
-151 -33 -430 1 -583 27 -119 59 -212 111 -320 42 -88 121 -221 139 -235 3 -3
25 -30 48 -60 111 -146 308 -300 503 -392 209 -99 398 -141 635 -142 242 0
441 46 654 153 82 41 183 103 209 128 7 7 17 13 22 13 5 0 62 53 128 118 159
158 262 312 329 492 13 36 27 72 30 80 3 8 7 20 9 27 1 6 7 27 12 45 6 18 13
50 17 72 3 21 7 41 9 45 7 11 19 152 20 236 2 71 -11 206 -29 305 -22 125
-122 362 -208 489 -147 219 -331 383 -555 496 -149 74 -299 122 -467 150 -40
7 -321 15 -327 10z"/>
<path d="M560 762 c-68 -34 -92 -127 -52 -197 l20 -33 -30 -29 c-16 -15 -36
-39 -43 -53 -22 -44 -8 -118 29 -156 41 -41 135 -52 207 -24 39 14 47 15 55 3
7 -10 26 -13 72 -11 l62 3 -35 40 c-21 24 -32 46 -29 55 18 41 32 87 34 105 5
49 2 53 -42 50 -58 -3 -60 -4 -54 -14 3 -5 1 -23 -5 -40 l-11 -31 -39 47 -38
47 27 16 c62 38 86 127 49 183 -19 30 -76 57 -116 57 -14 -1 -42 -9 -61 -18z
m96 -96 c15 -21 8 -44 -21 -68 -18 -16 -21 -16 -32 -1 -16 21 -17 65 -2 80 15
15 39 10 55 -11z m-33 -252 c38 -43 46 -63 25 -65 -7 0 -21 -2 -31 -4 -39 -7
-69 52 -51 100 8 21 13 18 57 -31z"/>
<path d="M1083 771 c-65 -16 -101 -49 -135 -121 -29 -62 -29 -208 0 -272 39
-87 117 -129 225 -122 62 3 133 30 156 58 17 20 22 215 6 217 -12 1 -165 1
-182 0 -8 -1 -13 -16 -13 -41 0 -40 0 -40 39 -40 37 0 39 -2 43 -35 5 -45 -1
-55 -44 -64 -51 -12 -95 9 -114 56 -24 55 -16 202 12 239 39 53 106 50 139 -7
19 -32 23 -35 70 -34 l50 0 -3 34 c-3 41 -41 95 -83 116 -35 19 -122 27 -166
16z"/>
<path d="M4 515 l0 -255 58 0 c32 0 58 3 59 8 0 4 2 39 2 77 1 39 5 75 9 80 4
6 28 10 54 9 62 -2 134 20 162 48 47 51 60 134 29 194 -38 73 -92 93 -253 94
l-120 0 0 -255z m247 138 c26 -25 27 -77 4 -103 -14 -16 -31 -20 -76 -20 l-57
0 2 73 c2 39 4 73 5 74 0 0 24 0 52 -2 35 -1 57 -8 70 -22z"/>
<path d="M1546 733 c0 -21 2 -43 3 -48 0 -6 30 -10 71 -9 l70 1 0 -208 0 -209
60 0 60 0 0 209 0 208 75 -1 75 -2 0 48 0 48 -208 0 -207 0 1 -37z"/>
<path d="M2011 515 l0 -255 60 0 59 0 1 43 c0 23 0 63 -1 90 l-1 47 34 0 c34
0 36 -2 78 -90 l43 -90 63 0 c35 0 63 3 63 6 0 4 -22 51 -50 105 l-49 99 24
16 c36 24 56 61 60 112 5 74 -18 117 -78 147 -47 23 -62 25 -179 25 l-128 0 1
-255z m245 144 c24 -25 27 -72 6 -99 -13 -16 -30 -23 -62 -24 -67 -4 -70 -1
-70 68 0 35 2 65 5 68 12 12 106 1 121 -13z"/>
<path d="M2552 593 c-35 -98 -76 -213 -92 -255 l-29 -78 63 0 c68 0 70 1 90
76 6 19 13 21 88 20 l82 -1 15 -48 15 -47 63 0 c35 0 63 2 63 4 0 4 -33 98
-117 326 -19 52 -41 114 -50 138 l-16 42 -56 0 -56 0 -63 -177z m173 -133 c4
-6 -15 -10 -50 -10 -44 0 -56 3 -52 14 3 7 15 47 27 87 l23 74 23 -78 c12 -42
26 -82 29 -87z"/>
<path d="M2890 763 c0 -3 36 -118 81 -255 l81 -249 66 3 67 3 77 235 c43 129
81 243 84 253 5 16 -1 18 -63 15 l-68 -3 -45 -170 c-51 -187 -58 -210 -59
-183 -1 10 -16 75 -35 145 -19 70 -40 147 -46 171 l-11 42 -64 0 c-36 0 -65
-3 -65 -7z"/>
<path d="M3390 515 l0 -255 169 0 169 0 4 45 c2 25 -1 46 -7 48 -5 2 -56 3
-112 2 l-103 -1 0 61 0 62 83 -1 c45 -1 88 0 95 2 7 3 11 20 10 47 l-1 43 -71
0 c-125 -1 -116 -5 -116 55 l0 54 110 -2 110 -1 0 48 0 48 -170 0 -170 0 0
-255z"/>
<path d="M3783 515 l0 -255 164 0 164 0 -3 48 -3 47 -100 0 -100 0 -2 195 c-1
107 -2 201 -2 208 -1 8 -20 12 -60 12 l-58 0 0 -255z"/>
</g>
</svg>
